<?xml version="1.0" encoding="iso-8859-1"?>
<!-- Generator: Adobe Illustrator 19.0.0, SVG Export Plug-In . SVG Version: 6.00 Build 0)  -->
<svg version="1.1" id="Layer_1" xmlns="http://www.w3.org/2000/svg" xmlns:xlink="http://www.w3.org/1999/xlink" x="0px" y="0px"
	 viewBox="0 0 512 512" style="enable-background:new 0 0 512 512;" xml:space="preserve">
<circle style="fill:#71E2EF;" cx="256" cy="256" r="256"/>
<path style="fill:#38C6D9;" d="M505.32,314.325L269.053,78.058l-32.016,206.386l-83.609,131.017l96.461,96.461
	c2.032,0.048,4.068,0.078,6.111,0.078C377.32,512,478.923,427.606,505.32,314.325z"/>
<path style="fill:#D35933;" d="M190.174,503.441C211.18,509.014,233.241,512,256,512c22.759,0,44.82-2.986,65.826-8.559
	l-23.159-162.107h-85.333L190.174,503.441z"/>
<path style="fill:#B54324;" d="M298.667,341.333H256V512c22.759,0,44.818-2.986,65.824-8.559L298.667,341.333z"/>
<g>
	<path style="fill:#EAA22F;" d="M229.261,510.614c8.79,0.912,17.71,1.386,26.74,1.386c9.03,0,17.951-0.474,26.74-1.386
		l-9.673-169.281h-34.133L229.261,510.614z"/>
	<path style="fill:#EAA22F;" d="M273.067,341.333H256V512c9.032,0,17.949-0.474,26.74-1.386L273.067,341.333z"/>
</g>
<path style="fill:#D35933;" d="M210.317,244.795l-36.412,36.412c-13.11,13.11-20.477,30.894-20.477,49.436v84.818l56.889-56.889
	V244.795z"/>
<path style="fill:#B54324;" d="M301.684,244.795l36.412,36.412c13.112,13.112,20.477,30.894,20.477,49.436v84.818l-56.889-56.889
	V244.795z"/>
<path style="fill:#FFFFFF;" d="M312.889,369.778H199.111V201.425c0-38.602,11.426-76.341,32.839-108.461l6.944-10.414
	c8.139-12.207,26.076-12.207,34.213,0l6.944,10.414c21.413,32.12,32.839,69.858,32.839,108.461V369.778z"/>
<path style="fill:#D0D1D3;" d="M312.889,201.425c0-38.602-11.426-76.341-32.839-108.461l-6.944-10.414
	c-4.068-6.103-10.587-9.156-17.106-9.156v296.384h56.889V201.425z"/>
<circle style="fill:#386895;" cx="256" cy="199.111" r="36.202"/>
<path style="fill:#273B7A;" d="M292.202,199.111c0-19.994-16.208-36.202-36.202-36.202v72.404
	C275.994,235.313,292.202,219.105,292.202,199.111z"/>
<rect x="199.111" y="284.444" style="fill:#FF7F4F;" width="113.778" height="56.889"/>
<rect x="256" y="284.444" style="fill:#D35933;" width="56.889" height="56.889"/>
<g>
</g>
<g>
</g>
<g>
</g>
<g>
</g>
<g>
</g>
<g>
</g>
<g>
</g>
<g>
</g>
<g>
</g>
<g>
</g>
<g>
</g>
<g>
</g>
<g>
</g>
<g>
</g>
<g>
</g>
</svg>
